<svg version="1.1" id="Layer_1" xmlns="http://www.w3.org/2000/svg" xmlns:xlink="http://www.w3.org/1999/xlink" x="0px" y="0px"
	 width="100%" viewBox="0 0 385 380" enable-background="new 0 0 385 380" xml:space="preserve">
<path fill="#000000" opacity="1.000000" stroke="none" 
	d="
M251.000000,381.000000 
	C167.715103,381.000000 84.430199,381.000000 1.072651,381.000000 
	C1.072651,254.455429 1.072651,127.910789 1.072651,1.000000 
	C41.686829,1.000000 82.374756,1.000000 123.863235,1.248109 
	C122.263153,5.685157 119.607422,9.750666 117.509644,14.086147 
	C111.178200,27.171360 104.922562,40.297832 98.942619,53.545998 
	C96.911980,58.044758 98.670921,61.481678 102.923943,63.444084 
	C107.618622,65.610275 112.324081,67.755829 116.976768,70.009628 
	C123.954033,73.389473 127.513672,72.254364 130.968948,65.048340 
	C137.746887,50.912819 144.380661,36.708237 151.099274,22.544182 
	C154.154297,16.103619 152.899384,12.295924 146.491272,9.202286 
	C142.130585,7.097078 137.683212,5.170568 133.337875,3.035413 
	C132.710098,2.726951 132.437149,1.696398 132.000000,1.000001 
	C216.617630,1.000000 301.235260,1.000000 385.926453,1.000000 
	C385.926453,127.544250 385.926453,254.088562 385.926453,381.000000 
	C345.646515,381.000000 305.291901,381.000000 264.136993,380.733704 
	C263.855560,379.819366 264.524200,379.242584 264.871338,378.512878 
	C272.367157,362.756622 279.881531,347.008759 287.260468,331.197723 
	C289.463104,326.478058 287.903717,322.725647 282.662842,319.996399 
	C277.504913,317.310303 272.255524,314.770721 266.913513,312.475830 
	C262.155457,310.431763 258.302460,312.056366 256.048035,316.745331 
	C248.685745,332.057953 241.369629,347.392853 234.045029,362.723572 
	C232.223587,366.535919 233.683594,370.898346 237.506683,372.856323 
	C241.544998,374.924500 245.661545,376.841217 249.675888,378.953430 
	C250.302673,379.283203 250.567688,380.300568 251.000000,381.000000 
M130.399170,322.073029 
	C138.327209,325.923340 146.243134,329.798828 154.185730,333.618805 
	C171.836716,342.108063 189.490128,350.592499 207.167297,359.026978 
	C211.927017,361.298065 215.873016,360.006653 218.242722,355.306000 
	C220.959412,349.916992 223.464203,344.420013 226.004791,338.943848 
	C228.288940,334.020447 227.064941,330.377319 222.211975,328.059235 
	C208.818756,321.661713 195.363251,315.394409 181.978745,308.978882 
	C170.345047,303.402527 158.787979,297.666534 147.170776,292.055481 
	C141.224899,289.183685 137.093384,290.586151 134.181641,296.523193 
	C131.814316,301.350159 129.809769,306.359131 127.345795,311.133331 
	C125.083496,315.516815 125.733467,319.000214 130.399170,322.073029 
M201.053635,155.913467 
	C198.796600,163.769836 199.898605,167.238800 205.158798,169.634048 
	C214.496384,173.885925 223.812988,178.186264 233.087311,182.574265 
	C248.857956,190.035889 264.571533,197.618179 280.346558,205.070435 
	C285.568665,207.537430 289.505188,206.102753 291.990479,200.933640 
	C294.462250,195.792679 296.837585,190.603012 299.143494,185.385330 
	C301.361084,180.367416 299.961121,176.341309 295.148499,174.047272 
	C282.792847,168.157669 270.395660,162.355240 258.017487,156.512878 
	C244.898804,150.321045 231.808731,144.067764 218.652237,137.957397 
	C213.841431,135.723083 210.408722,137.017273 208.112198,141.573334 
	C205.835114,146.090790 203.605423,150.632111 201.053635,155.913467 
M221.947556,270.380615 
	C230.189850,253.165222 238.419098,235.943542 246.681839,218.737946 
	C249.411545,213.053894 248.147659,208.942459 242.531403,206.201660 
	C237.439606,203.716766 232.260788,201.410461 227.125183,199.015030 
	C222.059052,196.651962 218.485184,197.870529 216.012924,203.011292 
	C208.641586,218.339020 201.347321,233.703781 193.987946,249.037277 
	C189.360107,258.679535 184.462418,268.198792 180.088104,277.953583 
	C177.644257,283.403412 178.264893,287.447998 182.406784,289.674744 
	C188.101349,292.736237 193.974945,295.529938 199.969177,297.949524 
	C205.409103,300.145325 208.121582,298.909332 210.659485,293.733765 
	C214.355255,286.196899 217.893341,278.582703 221.947556,270.380615 
M82.511475,166.990692 
	C85.928185,159.860245 89.326736,152.721024 92.767433,145.602158 
	C95.473740,140.002777 94.293732,135.936752 88.667274,132.997284 
	C83.510780,130.303345 78.251595,127.779091 72.912048,125.470596 
	C68.391235,123.516083 64.216370,125.305611 62.030495,129.896988 
	C55.976933,142.612366 50.060658,155.393372 43.967148,168.089417 
	C38.075100,180.365707 32.014507,192.561005 26.059011,204.806992 
	C23.369577,210.337143 24.790972,214.269348 30.409243,217.080994 
	C35.055912,219.406418 39.655037,221.834915 44.366955,224.019943 
	C51.078968,227.132446 53.888905,226.158936 57.029629,219.661835 
	C65.408257,202.329285 73.717667,184.963257 82.511475,166.990692 
M357.055908,184.602051 
	C357.792236,183.157745 358.527771,181.713043 359.265076,180.269226 
	C363.074677,172.808685 361.183563,168.174576 353.839691,164.970200 
	C349.849182,163.229050 345.907867,161.368027 341.995422,159.456604 
	C335.496826,156.281723 332.278259,157.330124 329.016571,163.974213 
	C325.024353,172.106430 321.086548,180.265747 317.178223,188.438690 
	C309.080170,205.372986 301.024139,222.327362 292.934265,239.265564 
	C291.179108,242.940414 291.219299,246.729538 294.761902,248.828217 
	C300.598419,252.285828 306.799591,255.188141 313.032928,257.896912 
	C318.138458,260.115570 321.351135,258.611816 324.135345,253.427994 
	C326.040100,249.881561 327.934814,246.324051 329.669464,242.692902 
	C338.791840,223.597275 347.861816,204.476624 357.055908,184.602051 
M125.060150,187.557022 
	C118.140717,184.271362 111.310394,180.776398 104.268532,177.778290 
	C100.026871,175.972366 96.570564,177.730331 94.641434,181.804047 
	C92.129044,187.109436 89.605629,192.409592 87.090363,197.713608 
	C84.643616,202.873108 85.825050,206.493866 90.923500,208.969498 
	C99.287971,213.030945 107.700485,216.993332 116.082443,221.018936 
	C132.704117,229.001846 149.308990,237.019806 165.941727,244.979584 
	C171.623749,247.698807 175.856705,246.329849 178.602051,240.797043 
	C180.990707,235.983139 183.258881,231.101334 185.369125,226.159378 
	C188.203384,219.521851 187.315384,217.065338 181.023758,214.021957 
	C163.399216,205.496536 145.741837,197.038925 128.085541,188.579330 
	C127.364609,188.233902 126.523445,188.139374 125.060150,187.557022 
M178.444031,163.048737 
	C183.300827,152.998093 188.164780,142.950882 193.012314,132.895782 
	C197.357590,123.882500 201.722946,114.878586 206.007721,105.836555 
	C209.345169,98.793564 208.009628,95.337227 200.842133,91.987503 
	C196.748627,90.074394 192.645569,88.180626 188.576248,86.217140 
	C182.225311,83.152748 178.144897,84.485092 175.024460,90.947662 
	C166.301682,109.012894 157.611465,127.094139 148.995346,145.210434 
	C145.529449,152.497879 142.234024,159.868317 138.970718,167.249466 
	C137.246964,171.148361 138.608444,174.127731 142.285248,176.021896 
	C147.616898,178.768600 152.965027,181.489792 158.381210,184.063904 
	C162.882492,186.203217 167.709763,185.327515 169.646454,181.633957 
	C172.706253,175.798447 175.274292,169.705078 178.444031,163.048737 
M224.999069,84.498940 
	C230.315689,86.995186 235.625519,89.506058 240.951035,91.983192 
	C245.456741,94.078995 248.784988,93.031677 251.113647,88.481270 
	C253.787689,83.255905 256.314026,77.948578 258.718567,72.593361 
	C261.426208,66.563133 260.153931,62.877579 254.332733,60.104698 
	C243.589417,54.987198 232.751404,50.068874 221.991394,44.985962 
	C207.971405,38.363087 194.000717,31.635910 179.984482,25.005072 
	C174.511017,22.415665 170.606079,23.799490 167.972794,29.239273 
	C165.484955,34.378620 162.962631,39.512112 160.762817,44.776608 
	C159.030640,48.921993 159.337952,52.881779 163.833481,55.268387 
	C166.698730,56.789513 169.771286,57.914429 172.703552,59.316017 
	C189.933182,67.551598 207.148865,75.816307 224.999069,84.498940 
M131.397873,132.998093 
	C133.274841,131.944748 135.935059,131.356308 136.886337,129.753555 
	C140.134384,124.281158 142.952362,118.530365 145.607880,112.736130 
	C148.111618,107.273010 146.646805,103.450394 141.189133,100.675919 
	C136.103683,98.090675 130.882050,95.774216 125.732773,93.313454 
	C115.715134,88.526222 105.722420,83.686501 95.685822,78.939476 
	C91.557747,76.987015 87.164215,77.873650 85.282181,81.489204 
	C82.200287,87.409836 79.330795,93.472038 76.854630,99.667534 
	C74.740700,104.956703 75.996140,107.558052 80.926231,109.975197 
	C92.512100,115.655533 104.077049,121.381775 115.740715,126.898636 
	C120.570702,129.183197 125.631577,130.979599 131.397873,132.998093 
M366.620117,113.927017 
	C355.138123,108.500450 343.693634,102.992279 332.153076,97.693253 
	C328.312408,95.929764 324.436310,96.437714 322.316589,100.443321 
	C319.125061,106.474358 316.345673,112.730377 313.557526,118.965187 
	C312.119965,122.179817 312.668243,125.289536 315.789459,127.202209 
	C319.087738,129.223389 322.615479,130.890411 326.117615,132.555099 
	C339.201874,138.774475 352.349701,144.861008 365.400208,151.149857 
	C369.391663,153.073273 372.402161,151.323166 374.071930,148.364517 
	C377.502838,142.285492 380.281921,135.828186 383.152252,129.446945 
	C384.998383,125.342773 383.573578,122.235161 379.615936,120.235382 
	C375.536072,118.173828 371.449951,116.124664 366.620117,113.927017 
M23.982090,271.481354 
	C34.311905,276.336304 44.607853,281.265442 54.989361,286.007233 
	C58.782001,287.739532 62.033581,286.627014 63.990879,282.874054 
	C66.863861,277.365448 69.709282,271.832001 72.276649,266.177551 
	C74.612221,261.033661 73.261841,257.151001 68.244591,254.718063 
	C52.972492,247.312500 37.651997,240.004456 22.278677,232.811615 
	C18.615561,231.097717 14.387966,230.994003 12.183897,234.826996 
	C8.864560,240.599457 6.101694,246.744202 3.649067,252.946915 
	C1.520432,258.330231 3.105146,261.537140 8.271871,264.033478 
	C13.261354,266.444183 18.312679,268.726868 23.982090,271.481354 
M299.686157,270.936981 
	C286.628937,264.577393 273.608063,258.141663 260.497772,251.893448 
	C254.750031,249.154129 250.683762,250.787933 247.823181,256.524170 
	C245.489304,261.204254 243.063553,265.842346 240.871552,270.588196 
	C238.740494,275.202087 239.686462,279.883759 243.581970,281.796173 
	C259.381073,289.552338 275.245850,297.181519 291.213867,304.582520 
	C296.019348,306.809814 300.505371,304.562469 302.612305,299.868347 
	C304.611908,295.413391 306.788727,291.037048 308.743256,286.563080 
	C310.993011,281.413269 311.717163,274.876190 303.177399,272.062286 
	C302.258270,271.759399 301.354248,271.410767 299.686157,270.936981 
M287.053955,133.609344 
	C293.272430,120.635887 299.569366,107.699181 305.668365,94.669800 
	C307.915344,89.869484 306.324554,85.869019 301.047180,83.077087 
	C295.778900,80.289940 290.344421,77.792435 284.872040,75.423820 
	C280.922546,73.714348 276.790771,75.476936 274.732269,79.739517 
	C267.350494,95.025154 260.049896,110.350502 252.814102,125.705849 
	C250.772919,130.037537 252.200485,134.569092 256.298553,136.638931 
	C261.772980,139.403931 267.320770,142.056641 272.984589,144.401154 
	C276.327576,145.784973 279.854095,145.786896 282.200989,142.263580 
	C283.902374,139.709412 285.375366,137.003143 287.053955,133.609344 
M128.987869,246.483536 
	C123.716537,243.997879 118.446793,241.508835 113.173378,239.027588 
	C108.562088,236.857864 105.056343,237.949432 102.727974,242.753189 
	C95.314026,258.049286 87.985909,273.387939 80.761223,288.774292 
	C78.443741,293.709839 80.037971,297.535553 84.946869,299.990997 
	C89.295303,302.166077 93.609184,304.415283 98.008057,306.483459 
	C105.529747,310.019836 109.524216,308.112732 112.561920,301.845856 
	C119.539696,287.450348 126.326729,272.961731 133.105026,258.470612 
	C135.452606,253.451767 134.329071,250.103043 128.987869,246.483536 
z"/>
<path fill="#96D6D7" opacity="1.000000" stroke="none" 
	d="
M131.555832,1.000001 
	C132.437149,1.696398 132.710098,2.726951 133.337875,3.035413 
	C137.683212,5.170568 142.130585,7.097078 146.491272,9.202286 
	C152.899384,12.295924 154.154297,16.103619 151.099274,22.544182 
	C144.380661,36.708237 137.746887,50.912819 130.968948,65.048340 
	C127.513672,72.254364 123.954033,73.389473 116.976768,70.009628 
	C112.324081,67.755829 107.618622,65.610275 102.923943,63.444084 
	C98.670921,61.481678 96.911980,58.044758 98.942619,53.545998 
	C104.922562,40.297832 111.178200,27.171360 117.509644,14.086147 
	C119.607422,9.750666 122.263153,5.685157 124.331894,1.248109 
	C126.370552,1.000000 128.741104,1.000000 131.555832,1.000001 
z"/>
<path fill="#96D6D7" opacity="1.000000" stroke="none" 
	d="
M251.463181,381.000000 
	C250.567688,380.300568 250.302673,379.283203 249.675888,378.953430 
	C245.661545,376.841217 241.544998,374.924500 237.506683,372.856323 
	C233.683594,370.898346 232.223587,366.535919 234.045029,362.723572 
	C241.369629,347.392853 248.685745,332.057953 256.048035,316.745331 
	C258.302460,312.056366 262.155457,310.431763 266.913513,312.475830 
	C272.255524,314.770721 277.504913,317.310303 282.662842,319.996399 
	C287.903717,322.725647 289.463104,326.478058 287.260468,331.197723 
	C279.881531,347.008759 272.367157,362.756622 264.871338,378.512878 
	C264.524200,379.242584 263.855560,379.819366 263.668335,380.733704 
	C259.975464,381.000000 255.950912,381.000000 251.463181,381.000000 
z"/>
<path fill="#F0554A" opacity="1.000000" stroke="none" 
	d="
M130.025055,321.999573 
	C125.733467,319.000214 125.083496,315.516815 127.345795,311.133331 
	C129.809769,306.359131 131.814316,301.350159 134.181641,296.523193 
	C137.093384,290.586151 141.224899,289.183685 147.170776,292.055481 
	C158.787979,297.666534 170.345047,303.402527 181.978745,308.978882 
	C195.363251,315.394409 208.818756,321.661713 222.211975,328.059235 
	C227.064941,330.377319 228.288940,334.020447 226.004791,338.943848 
	C223.464203,344.420013 220.959412,349.916992 218.242722,355.306000 
	C215.873016,360.006653 211.927017,361.298065 207.167297,359.026978 
	C189.490128,350.592499 171.836716,342.108063 154.185730,333.618805 
	C146.243134,329.798828 138.327209,325.923340 130.025055,321.999573 
z"/>
<path fill="#F0554A" opacity="1.000000" stroke="none" 
	d="
M201.204285,155.538223 
	C203.605423,150.632111 205.835114,146.090790 208.112198,141.573334 
	C210.408722,137.017273 213.841431,135.723083 218.652237,137.957397 
	C231.808731,144.067764 244.898804,150.321045 258.017487,156.512878 
	C270.395660,162.355240 282.792847,168.157669 295.148499,174.047272 
	C299.961121,176.341309 301.361084,180.367416 299.143494,185.385330 
	C296.837585,190.603012 294.462250,195.792679 291.990479,200.933640 
	C289.505188,206.102753 285.568665,207.537430 280.346558,205.070435 
	C264.571533,197.618179 248.857956,190.035889 233.087311,182.574265 
	C223.812988,178.186264 214.496384,173.885925 205.158798,169.634048 
	C199.898605,167.238800 198.796600,163.769836 201.204285,155.538223 
z"/>
<path fill="#96D6D7" opacity="1.000000" stroke="none" 
	d="
M221.723099,270.691040 
	C217.893341,278.582703 214.355255,286.196899 210.659485,293.733765 
	C208.121582,298.909332 205.409103,300.145325 199.969177,297.949524 
	C193.974945,295.529938 188.101349,292.736237 182.406784,289.674744 
	C178.264893,287.447998 177.644257,283.403412 180.088104,277.953583 
	C184.462418,268.198792 189.360107,258.679535 193.987946,249.037277 
	C201.347321,233.703781 208.641586,218.339020 216.012924,203.011292 
	C218.485184,197.870529 222.059052,196.651962 227.125183,199.015030 
	C232.260788,201.410461 237.439606,203.716766 242.531403,206.201660 
	C248.147659,208.942459 249.411545,213.053894 246.681839,218.737946 
	C238.419098,235.943542 230.189850,253.165222 221.723099,270.691040 
z"/>
<path fill="#96D6D7" opacity="1.000000" stroke="none" 
	d="
M82.283028,167.300613 
	C73.717667,184.963257 65.408257,202.329285 57.029629,219.661835 
	C53.888905,226.158936 51.078968,227.132446 44.366955,224.019943 
	C39.655037,221.834915 35.055912,219.406418 30.409243,217.080994 
	C24.790972,214.269348 23.369577,210.337143 26.059011,204.806992 
	C32.014507,192.561005 38.075100,180.365707 43.967148,168.089417 
	C50.060658,155.393372 55.976933,142.612366 62.030495,129.896988 
	C64.216370,125.305611 68.391235,123.516083 72.912048,125.470596 
	C78.251595,127.779091 83.510780,130.303345 88.667274,132.997284 
	C94.293732,135.936752 95.473740,140.002777 92.767433,145.602158 
	C89.326736,152.721024 85.928185,159.860245 82.283028,167.300613 
z"/>
<path fill="#96D6D7" opacity="1.000000" stroke="none" 
	d="
M357.002960,184.983368 
	C347.861816,204.476624 338.791840,223.597275 329.669464,242.692902 
	C327.934814,246.324051 326.040100,249.881561 324.135345,253.427994 
	C321.351135,258.611816 318.138458,260.115570 313.032928,257.896912 
	C306.799591,255.188141 300.598419,252.285828 294.761902,248.828217 
	C291.219299,246.729538 291.179108,242.940414 292.934265,239.265564 
	C301.024139,222.327362 309.080170,205.372986 317.178223,188.438690 
	C321.086548,180.265747 325.024353,172.106430 329.016571,163.974213 
	C332.278259,157.330124 335.496826,156.281723 341.995422,159.456604 
	C345.907867,161.368027 349.849182,163.229050 353.839691,164.970200 
	C361.183563,168.174576 363.074677,172.808685 359.265076,180.269226 
	C358.527771,181.713043 357.792236,183.157745 357.002960,184.983368 
z"/>
<path fill="#F0554A" opacity="1.000000" stroke="none" 
	d="
M125.399216,187.742493 
	C126.523445,188.139374 127.364609,188.233902 128.085541,188.579330 
	C145.741837,197.038925 163.399216,205.496536 181.023758,214.021957 
	C187.315384,217.065338 188.203384,219.521851 185.369125,226.159378 
	C183.258881,231.101334 180.990707,235.983139 178.602051,240.797043 
	C175.856705,246.329849 171.623749,247.698807 165.941727,244.979584 
	C149.308990,237.019806 132.704117,229.001846 116.082443,221.018936 
	C107.700485,216.993332 99.287971,213.030945 90.923500,208.969498 
	C85.825050,206.493866 84.643616,202.873108 87.090363,197.713608 
	C89.605629,192.409592 92.129044,187.109436 94.641434,181.804047 
	C96.570564,177.730331 100.026871,175.972366 104.268532,177.778290 
	C111.310394,180.776398 118.140717,184.271362 125.399216,187.742493 
z"/>
<path fill="#96D6D7" opacity="1.000000" stroke="none" 
	d="
M178.247253,163.384796 
	C175.274292,169.705078 172.706253,175.798447 169.646454,181.633957 
	C167.709763,185.327515 162.882492,186.203217 158.381210,184.063904 
	C152.965027,181.489792 147.616898,178.768600 142.285248,176.021896 
	C138.608444,174.127731 137.246964,171.148361 138.970718,167.249466 
	C142.234024,159.868317 145.529449,152.497879 148.995346,145.210434 
	C157.611465,127.094139 166.301682,109.012894 175.024460,90.947662 
	C178.144897,84.485092 182.225311,83.152748 188.576248,86.217140 
	C192.645569,88.180626 196.748627,90.074394 200.842133,91.987503 
	C208.009628,95.337227 209.345169,98.793564 206.007721,105.836555 
	C201.722946,114.878586 197.357590,123.882500 193.012314,132.895782 
	C188.164780,142.950882 183.300827,152.998093 178.247253,163.384796 
z"/>
<path fill="#F0554A" opacity="1.000000" stroke="none" 
	d="
M224.684174,84.285065 
	C207.148865,75.816307 189.933182,67.551598 172.703552,59.316017 
	C169.771286,57.914429 166.698730,56.789513 163.833481,55.268387 
	C159.337952,52.881779 159.030640,48.921993 160.762817,44.776608 
	C162.962631,39.512112 165.484955,34.378620 167.972794,29.239273 
	C170.606079,23.799490 174.511017,22.415665 179.984482,25.005072 
	C194.000717,31.635910 207.971405,38.363087 221.991394,44.985962 
	C232.751404,50.068874 243.589417,54.987198 254.332733,60.104698 
	C260.153931,62.877579 261.426208,66.563133 258.718567,72.593361 
	C256.314026,77.948578 253.787689,83.255905 251.113647,88.481270 
	C248.784988,93.031677 245.456741,94.078995 240.951035,91.983192 
	C235.625519,89.506058 230.315689,86.995186 224.684174,84.285065 
z"/>
<path fill="#F0554A" opacity="1.000000" stroke="none" 
	d="
M130.992661,132.998047 
	C125.631577,130.979599 120.570702,129.183197 115.740715,126.898636 
	C104.077049,121.381775 92.512100,115.655533 80.926231,109.975197 
	C75.996140,107.558052 74.740700,104.956703 76.854630,99.667534 
	C79.330795,93.472038 82.200287,87.409836 85.282181,81.489204 
	C87.164215,77.873650 91.557747,76.987015 95.685822,78.939476 
	C105.722420,83.686501 115.715134,88.526222 125.732773,93.313454 
	C130.882050,95.774216 136.103683,98.090675 141.189133,100.675919 
	C146.646805,103.450394 148.111618,107.273010 145.607880,112.736130 
	C142.952362,118.530365 140.134384,124.281158 136.886337,129.753555 
	C135.935059,131.356308 133.274841,131.944748 130.992661,132.998047 
z"/>
<path fill="#F0554A" opacity="1.000000" stroke="none" 
	d="
M366.993347,113.998550 
	C371.449951,116.124664 375.536072,118.173828 379.615936,120.235382 
	C383.573578,122.235161 384.998383,125.342773 383.152252,129.446945 
	C380.281921,135.828186 377.502838,142.285492 374.071930,148.364517 
	C372.402161,151.323166 369.391663,153.073273 365.400208,151.149857 
	C352.349701,144.861008 339.201874,138.774475 326.117615,132.555099 
	C322.615479,130.890411 319.087738,129.223389 315.789459,127.202209 
	C312.668243,125.289536 312.119965,122.179817 313.557526,118.965187 
	C316.345673,112.730377 319.125061,106.474358 322.316589,100.443321 
	C324.436310,96.437714 328.312408,95.929764 332.153076,97.693253 
	C343.693634,102.992279 355.138123,108.500450 366.993347,113.998550 
z"/>
<path fill="#F0554A" opacity="1.000000" stroke="none" 
	d="
M23.659462,271.273560 
	C18.312679,268.726868 13.261354,266.444183 8.271871,264.033478 
	C3.105146,261.537140 1.520432,258.330231 3.649067,252.946915 
	C6.101694,246.744202 8.864560,240.599457 12.183897,234.826996 
	C14.387966,230.994003 18.615561,231.097717 22.278677,232.811615 
	C37.651997,240.004456 52.972492,247.312500 68.244591,254.718063 
	C73.261841,257.151001 74.612221,261.033661 72.276649,266.177551 
	C69.709282,271.832001 66.863861,277.365448 63.990879,282.874054 
	C62.033581,286.627014 58.782001,287.739532 54.989361,286.007233 
	C44.607853,281.265442 34.311905,276.336304 23.659462,271.273560 
z"/>
<path fill="#F0554A" opacity="1.000000" stroke="none" 
	d="
M300.064697,271.010162 
	C301.354248,271.410767 302.258270,271.759399 303.177399,272.062286 
	C311.717163,274.876190 310.993011,281.413269 308.743256,286.563080 
	C306.788727,291.037048 304.611908,295.413391 302.612305,299.868347 
	C300.505371,304.562469 296.019348,306.809814 291.213867,304.582520 
	C275.245850,297.181519 259.381073,289.552338 243.581970,281.796173 
	C239.686462,279.883759 238.740494,275.202087 240.871552,270.588196 
	C243.063553,265.842346 245.489304,261.204254 247.823181,256.524170 
	C250.683762,250.787933 254.750031,249.154129 260.497772,251.893448 
	C273.608063,258.141663 286.628937,264.577393 300.064697,271.010162 
z"/>
<path fill="#96D6D7" opacity="1.000000" stroke="none" 
	d="
M287.002075,133.987015 
	C285.375366,137.003143 283.902374,139.709412 282.200989,142.263580 
	C279.854095,145.786896 276.327576,145.784973 272.984589,144.401154 
	C267.320770,142.056641 261.772980,139.403931 256.298553,136.638931 
	C252.200485,134.569092 250.772919,130.037537 252.814102,125.705849 
	C260.049896,110.350502 267.350494,95.025154 274.732269,79.739517 
	C276.790771,75.476936 280.922546,73.714348 284.872040,75.423820 
	C290.344421,77.792435 295.778900,80.289940 301.047180,83.077087 
	C306.324554,85.869019 307.915344,89.869484 305.668365,94.669800 
	C299.569366,107.699181 293.272430,120.635887 287.002075,133.987015 
z"/>
<path fill="#96D6D7" opacity="1.000000" stroke="none" 
	d="
M129.294113,246.715332 
	C134.329071,250.103043 135.452606,253.451767 133.105026,258.470612 
	C126.326729,272.961731 119.539696,287.450348 112.561920,301.845856 
	C109.524216,308.112732 105.529747,310.019836 98.008057,306.483459 
	C93.609184,304.415283 89.295303,302.166077 84.946869,299.990997 
	C80.037971,297.535553 78.443741,293.709839 80.761223,288.774292 
	C87.985909,273.387939 95.314026,258.049286 102.727974,242.753189 
	C105.056343,237.949432 108.562088,236.857864 113.173378,239.027588 
	C118.446793,241.508835 123.716537,243.997879 129.294113,246.715332 
z"/>
</svg>